<svg width="27" height="28" viewBox="0 0 27 28" fill="none" xmlns="http://www.w3.org/2000/svg">
<circle opacity="0.4" cx="13.7288" cy="14.0962" r="12.047" stroke="currentColor" stroke-width="1.90596"/>
<path d="M14.4336 2.01643C16.0018 2.15362 17.5275 2.59833 18.9237 3.32517C20.32 4.05201 21.5594 5.04674 22.5712 6.25257C23.583 7.45841 24.3474 8.85172 24.8208 10.353C25.2941 11.8542 25.4671 13.434 25.3299 15.0021C25.1927 16.5702 24.748 18.096 24.0212 19.4922C23.2943 20.8884 22.2996 22.1279 21.0938 23.1397C19.8879 24.1515 18.4946 24.9159 16.9934 25.3892C15.4921 25.8626 13.9124 26.0356 12.3442 25.8984C10.7761 25.7612 9.25039 25.3165 7.85415 24.5896C6.4579 23.8628 5.21849 22.8681 4.20668 21.6622C3.19486 20.4564 2.43047 19.0631 1.95712 17.5618C1.48378 16.0606 1.31077 14.4808 1.44796 12.9127C1.58515 11.3446 2.02986 9.81886 2.7567 8.42261C3.48354 7.02637 4.47828 5.78696 5.68411 4.77514C6.88994 3.76333 8.28326 2.99893 9.78451 2.52559C11.2858 2.05225 12.8655 1.87923 14.4336 2.01643L14.4336 2.01643Z" stroke="currentColor" stroke-width="2.5" stroke-linecap="round"/>
<path d="M13.1068 20.5681C11.9246 20.5703 10.7703 20.2141 9.80126 19.5481C9.69333 19.4742 9.61971 19.3611 9.59659 19.2337C9.57347 19.1064 9.60274 18.9752 9.67796 18.8691C9.75318 18.763 9.86819 18.6906 9.99769 18.6679C10.1272 18.6451 10.2606 18.6739 10.3685 18.7479C11.0872 19.2399 11.9293 19.5289 12.8033 19.5835C13.6773 19.6381 14.5498 19.4562 15.3261 19.0575C16.1023 18.6589 16.7527 18.0587 17.2065 17.3222C17.6603 16.5857 17.9002 15.741 17.9002 14.8799C17.9002 14.0187 17.6603 13.1741 17.2065 12.4376C16.7527 11.7011 16.1023 11.1009 15.3261 10.7022C14.5498 10.3036 13.6773 10.1217 12.8033 10.1763C11.9293 10.2308 11.0872 10.5198 10.3685 11.0119C10.2606 11.0858 10.1272 11.1146 9.99769 11.0919C9.86819 11.0692 9.75318 10.9968 9.67796 10.8906C9.60274 10.7845 9.57347 10.6534 9.59659 10.526C9.61971 10.3987 9.69333 10.2856 9.80126 10.2116C10.5464 9.7015 11.4032 9.371 12.3024 9.24688C13.2015 9.12277 14.1177 9.20851 14.9769 9.49719C15.8361 9.78586 16.6142 10.2694 17.2481 10.9085C17.882 11.5477 18.354 12.3247 18.6259 13.1765C18.8978 14.0284 18.9619 14.9312 18.8131 15.8119C18.6644 16.6927 18.3068 17.5266 17.7695 18.2463C17.2321 18.966 16.53 19.5511 15.72 19.9545C14.91 20.3579 14.0148 20.5681 13.1068 20.5681Z" fill="currentColor"/>
<path d="M9.80142 15.6926H7.15695C7.02545 15.6926 6.89933 15.6412 6.80634 15.5498C6.71336 15.4583 6.66112 15.3343 6.66112 15.205C6.66112 15.0757 6.71336 14.9517 6.80634 14.8603C6.89933 14.7688 7.02545 14.7175 7.15695 14.7175H9.80142C9.93292 14.7175 10.059 14.7688 10.152 14.8603C10.245 14.9517 10.2973 15.0757 10.2973 15.205C10.2973 15.3343 10.245 15.4583 10.152 15.5498C10.059 15.6412 9.93292 15.6926 9.80142 15.6926ZM10.251 13.7423H6.49584C6.36433 13.7423 6.23821 13.691 6.14523 13.5995C6.05224 13.5081 6 13.3841 6 13.2548C6 13.1255 6.05224 13.0015 6.14523 12.91C6.23821 12.8186 6.36433 12.7672 6.49584 12.7672H10.251C10.3825 12.7672 10.5086 12.8186 10.6016 12.91C10.6946 13.0015 10.7468 13.1255 10.7468 13.2548C10.7468 13.3841 10.6946 13.5081 10.6016 13.5995C10.5086 13.691 10.3825 13.7423 10.251 13.7423ZM10.4625 17.6428H6.49584C6.36433 17.6428 6.23821 17.5915 6.14523 17.5C6.05224 17.4086 6 17.2846 6 17.1553C6 17.026 6.05224 16.902 6.14523 16.8105C6.23821 16.7191 6.36433 16.6677 6.49584 16.6677H10.4625C10.594 16.6677 10.7202 16.7191 10.8131 16.8105C10.9061 16.902 10.9584 17.026 10.9584 17.1553C10.9584 17.2846 10.9061 17.4086 10.8131 17.5C10.7202 17.5915 10.594 17.6428 10.4625 17.6428ZM19.4663 8.14577L17.237 6.74614C16.9781 6.58435 16.6645 6.5301 16.3649 6.5953C16.0654 6.66049 15.8044 6.83981 15.6391 7.09394L15.2834 7.64196C15.1186 7.89634 15.0633 8.2046 15.1295 8.49907C15.1957 8.79355 15.378 9.05016 15.6364 9.21256L17.867 10.6115C18.1258 10.7728 18.439 10.8268 18.7381 10.7618C19.0373 10.6967 19.2981 10.5179 19.4636 10.2644L19.8193 9.71637C19.9837 9.4619 20.0389 9.15374 19.9727 8.85937C19.9065 8.565 19.7244 8.30841 19.4663 8.14577Z" fill="currentColor"/>
<path d="M16.306 11.0847C16.2172 11.0845 16.1301 11.0609 16.0537 11.0163C15.9774 10.9717 15.9147 10.9078 15.872 10.8312C15.8294 10.7546 15.8085 10.6682 15.8114 10.5809C15.8144 10.4936 15.8411 10.4088 15.8888 10.3351L16.5995 9.23909C16.6345 9.18509 16.68 9.13841 16.7334 9.1017C16.7868 9.065 16.847 9.03899 16.9106 9.02517C16.9742 9.01134 17.04 9.00997 17.1041 9.02113C17.1682 9.0323 17.2295 9.05577 17.2844 9.09022C17.3393 9.12466 17.3868 9.16941 17.4241 9.2219C17.4615 9.27438 17.4879 9.33359 17.502 9.39613C17.516 9.45867 17.5174 9.52332 17.5061 9.58638C17.4947 9.64945 17.4709 9.70971 17.4358 9.7637L16.7245 10.8591C16.6798 10.9284 16.618 10.9854 16.5448 11.0249C16.4716 11.0643 16.3894 11.0849 16.306 11.0847ZM13.1068 11.1419C12.355 11.1419 11.62 11.3611 10.9949 11.7718C10.3697 12.1826 9.88251 12.7664 9.59479 13.4494C9.30707 14.1324 9.23179 14.884 9.37846 15.6091C9.52514 16.3342 9.88719 17.0002 10.4188 17.523C10.9505 18.0458 11.6278 18.4018 12.3652 18.546C13.1026 18.6902 13.867 18.6162 14.5616 18.3333C15.2562 18.0504 15.8499 17.5713 16.2676 16.9566C16.6853 16.3419 16.9083 15.6192 16.9083 14.8799C16.9116 14.3881 16.8155 13.9005 16.6257 13.4455C16.4358 12.9905 16.1559 12.5771 15.8023 12.2294C15.4486 11.8816 15.0282 11.6064 14.5655 11.4197C14.1028 11.233 13.607 11.1386 13.1068 11.1419ZM14.7543 14.1193L14.0793 14.6952C14.0918 14.756 14.0982 14.8179 14.0985 14.8799C14.1019 15.0908 14.0367 15.2973 13.9124 15.4693C13.7881 15.6412 13.6113 15.7697 13.4076 15.836C13.2039 15.9022 12.984 15.9029 12.78 15.8377C12.5759 15.7726 12.3983 15.6451 12.2731 15.4738C12.1478 15.3025 12.0814 15.0964 12.0836 14.8854C12.0858 14.6745 12.1564 14.4697 12.2851 14.3009C12.4138 14.1322 12.594 14.0082 12.7994 13.9471C13.0047 13.886 13.2245 13.891 13.4268 13.9613L14.1038 13.3827C14.2031 13.2979 14.3327 13.2553 14.4639 13.2644C14.5951 13.2735 14.7173 13.3335 14.8036 13.4311C14.8899 13.5288 14.9331 13.6562 14.9239 13.7852C14.9147 13.9143 14.8537 14.0344 14.7543 14.1193Z" fill="currentColor"/>
</svg>
