<svg width="26" height="26" viewBox="0 0 26 26" fill="none" xmlns="http://www.w3.org/2000/svg">
  <path d="M6.94922 16.4228V18.6922C6.94922 18.8302 7.06139 18.9453 7.20233 18.9453H8.95685C9.09491 18.9453 9.20996 18.8331 9.20996 18.6922V14.6999L7.93578 15.9741C7.66541 16.2416 7.32026 16.3969 6.94922 16.4228ZM10.0844 14.6712V18.6922C10.0844 18.8302 10.1965 18.9453 10.3375 18.9453H12.092C12.23 18.9453 12.3451 18.8331 12.3451 18.6922V16.325C11.9453 16.3164 11.5714 16.1582 11.2895 15.8763L10.0844 14.6712ZM13.2195 16.0748V18.6922C13.2195 18.8302 13.3317 18.9453 13.4726 18.9453H15.2271C15.3652 18.9453 15.4802 18.8331 15.4802 18.6922V13.8629L13.4697 15.8734C13.3921 15.9511 13.3086 16.0173 13.2195 16.0748ZM18.4457 10.8947L16.3546 12.9857V18.6922C16.3546 18.8302 16.4668 18.9453 16.6077 18.9453H18.3622C18.5003 18.9453 18.6154 18.8331 18.6154 18.6922V11.0528C18.5578 11.004 18.5147 10.9608 18.4831 10.932L18.4457 10.8947Z" fill="currentColor"/>
  <path d="M19.8809 7.18987C19.7975 7.10071 19.6709 7.05469 19.5098 7.05469H19.4638C18.6469 7.09208 17.833 7.13235 17.0161 7.16974C16.9068 7.17549 16.7572 7.18124 16.6393 7.29917C16.6019 7.33656 16.5732 7.3797 16.5501 7.43148C16.4293 7.69322 16.599 7.86291 16.6796 7.94345L16.8838 8.15054C17.0247 8.29435 17.1685 8.43817 17.3124 8.5791L12.3767 13.5176L10.1591 11.3C10.0268 11.1677 9.84844 11.0929 9.65861 11.0929C9.46878 11.0929 9.29333 11.1677 9.16102 11.3L6.20709 14.2511C5.93097 14.5272 5.93097 14.973 6.20709 15.2491L6.3394 15.3814C6.47171 15.5138 6.65004 15.5885 6.83987 15.5885C7.0297 15.5885 7.20516 15.5138 7.33746 15.3814L9.65861 13.0603L11.8762 15.2779C12.0085 15.4102 12.1868 15.485 12.3767 15.485C12.5665 15.485 12.742 15.4102 12.8772 15.2779L18.4456 9.70947L19.0755 10.3365C19.1503 10.4113 19.2538 10.5148 19.412 10.5148C19.4782 10.5148 19.5443 10.4976 19.6134 10.4602C19.6594 10.4343 19.6997 10.4055 19.7342 10.371C19.8579 10.2473 19.8809 10.0891 19.8866 9.96546C19.9096 9.43623 19.9355 8.907 19.9614 8.37489L19.9988 7.57817C20.0074 7.41134 19.97 7.28191 19.8809 7.18987Z" fill="currentColor"/>
  <circle cx="13" cy="13" r="12" stroke="currentColor" stroke-width="2"/>
</svg>
