<svg width="27" height="28" viewBox="0 0 27 28" fill="none" xmlns="http://www.w3.org/2000/svg">
<circle opacity="0.4" cx="13.7288" cy="14.0962" r="12.047" stroke="currentColor" stroke-width="1.90596"/>
<path d="M14.4336 2.01643C16.0018 2.15362 17.5275 2.59833 18.9237 3.32517C20.32 4.05201 21.5594 5.04674 22.5712 6.25257C23.583 7.45841 24.3474 8.85172 24.8208 10.353C25.2941 11.8542 25.4671 13.434 25.3299 15.0021C25.1927 16.5702 24.748 18.096 24.0212 19.4922C23.2943 20.8884 22.2996 22.1279 21.0938 23.1397C19.8879 24.1515 18.4946 24.9159 16.9934 25.3892C15.4921 25.8626 13.9124 26.0356 12.3442 25.8984C10.7761 25.7612 9.25039 25.3165 7.85415 24.5896C6.4579 23.8628 5.21849 22.8681 4.20668 21.6622C3.19486 20.4564 2.43047 19.0631 1.95712 17.5618C1.48378 16.0606 1.31077 14.4808 1.44796 12.9127C1.58515 11.3446 2.02986 9.81886 2.7567 8.42261C3.48354 7.02637 4.47828 5.78696 5.68411 4.77514C6.88994 3.76333 8.28326 2.99893 9.78451 2.52559C11.2858 2.05225 12.8655 1.87923 14.4336 2.01643L14.4336 2.01643Z" stroke="currentColor" stroke-width="2.5" stroke-linecap="round"/>
<path d="M6.94922 16.9364V19.2057C6.94922 19.3438 7.06139 19.4588 7.20233 19.4588H8.95685C9.09491 19.4588 9.20996 19.3467 9.20996 19.2057V15.2135L7.93578 16.4877C7.66541 16.7552 7.32026 16.9105 6.94922 16.9364ZM10.0844 15.1847V19.2057C10.0844 19.3438 10.1965 19.4588 10.3375 19.4588H12.092C12.23 19.4588 12.3451 19.3467 12.3451 19.2057V16.8386C11.9453 16.8299 11.5714 16.6717 11.2895 16.3899L10.0844 15.1847ZM13.2195 16.5883V19.2057C13.2195 19.3438 13.3317 19.4588 13.4726 19.4588H15.2271C15.3652 19.4588 15.4802 19.3467 15.4802 19.2057V14.3765L13.4697 16.387C13.3921 16.4647 13.3086 16.5308 13.2195 16.5883ZM18.4457 11.4082L16.3546 13.4992V19.2057C16.3546 19.3438 16.4668 19.4588 16.6077 19.4588H18.3622C18.5003 19.4588 18.6154 19.3467 18.6154 19.2057V11.5664C18.5578 11.5175 18.5147 11.4744 18.4831 11.4456L18.4457 11.4082Z" fill="currentColor"/>
<path d="M19.8809 7.70354C19.7975 7.61438 19.6709 7.56836 19.5098 7.56836H19.4638C18.6469 7.60575 17.833 7.64602 17.0161 7.68341C16.9068 7.68916 16.7572 7.69491 16.6393 7.81284C16.6019 7.85023 16.5732 7.89338 16.5501 7.94515C16.4293 8.20689 16.599 8.37659 16.6796 8.45712L16.8838 8.66421C17.0247 8.80803 17.1685 8.95184 17.3124 9.09277L12.3767 14.0313L10.1591 11.8137C10.0268 11.6814 9.84844 11.6066 9.65861 11.6066C9.46878 11.6066 9.29333 11.6814 9.16102 11.8137L6.20709 14.7647C5.93097 15.0409 5.93097 15.4867 6.20709 15.7628L6.3394 15.8951C6.47171 16.0274 6.65004 16.1022 6.83987 16.1022C7.0297 16.1022 7.20516 16.0274 7.33746 15.8951L9.65861 13.574L11.8762 15.7916C12.0085 15.9239 12.1869 15.9987 12.3767 15.9987C12.5665 15.9987 12.742 15.9239 12.8772 15.7916L18.4456 10.2231L19.0755 10.8502C19.1503 10.9249 19.2538 11.0285 19.412 11.0285C19.4782 11.0285 19.5443 11.0112 19.6134 10.9738C19.6594 10.948 19.6997 10.9192 19.7342 10.8847C19.8579 10.761 19.8809 10.6028 19.8866 10.4791C19.9096 9.9499 19.9355 9.42067 19.9614 8.88856L19.9988 8.09184C20.0074 7.92501 19.97 7.79558 19.8809 7.70354Z" fill="currentColor"/>
</svg>
