<svg width="26" height="26" viewBox="0 0 26 26" fill="none" xmlns="http://www.w3.org/2000/svg">
<path d="M17.1203 9.10461C17.6061 9.10461 17.9999 8.71081 17.9999 8.22503C17.9999 7.73926 17.6061 7.34546 17.1203 7.34546C16.6345 7.34546 16.2407 7.73926 16.2407 8.22503C16.2407 8.71081 16.6345 9.10461 17.1203 9.10461Z" fill="currentColor"/>
<path d="M14.7751 7.34557C15.2609 7.34557 15.6547 6.95177 15.6547 6.466C15.6547 5.98022 15.2609 5.58643 14.7751 5.58643C14.2893 5.58643 13.8955 5.98022 13.8955 6.466C13.8955 6.95177 14.2893 7.34557 14.7751 7.34557Z" fill="currentColor"/>
<path d="M12.4294 6.75915C12.9152 6.75915 13.309 6.36535 13.309 5.87957C13.309 5.3938 12.9152 5 12.4294 5C11.9436 5 11.5498 5.3938 11.5498 5.87957C11.5498 6.36535 11.9436 6.75915 12.4294 6.75915Z" fill="currentColor"/>
<path d="M10.0839 7.932C10.5697 7.932 10.9635 7.5382 10.9635 7.05243C10.9635 6.56665 10.5697 6.17285 10.0839 6.17285C9.59814 6.17285 9.20435 6.56665 9.20435 7.05243C9.20435 7.5382 9.59814 7.932 10.0839 7.932Z" fill="currentColor"/>
<path d="M16.2409 8.22517V12.0367C16.2409 12.1144 16.21 12.189 16.155 12.244C16.1 12.299 16.0254 12.3298 15.9477 12.3298C15.8699 12.3298 15.7953 12.299 15.7403 12.244C15.6854 12.189 15.6545 12.1144 15.6545 12.0367V6.46602H13.8953V11.4503C13.8953 11.528 13.8644 11.6026 13.8094 11.6576C13.7545 11.7126 13.6799 11.7435 13.6021 11.7435C13.5244 11.7435 13.4498 11.7126 13.3948 11.6576C13.3398 11.6026 13.3089 11.528 13.3089 11.4503V5.87964H11.5498V11.4503C11.5498 11.528 11.5189 11.6026 11.4639 11.6576C11.4089 11.7126 11.3344 11.7435 11.2566 11.7435C11.1788 11.7435 11.1043 11.7126 11.0493 11.6576C10.9943 11.6026 10.9634 11.528 10.9634 11.4503V7.0524H9.20425V14.3822L8.01683 12.7573C7.665 12.2149 6.97834 12.0331 6.47523 12.3439C5.97387 12.6617 5.84956 13.3548 6.1967 13.8955C6.1967 13.8955 8.11182 16.794 8.92807 18.0348C9.74431 19.2755 11.0666 20.246 13.5394 20.246C17.6335 20.246 18 17.0842 18 16.1413V8.22517H16.2409Z" fill="currentColor"/>
<circle cx="13" cy="13" r="12" stroke="currentColor" stroke-width="2"/>
</svg>
