<svg width="27" height="28" viewBox="0 0 27 28" fill="none" xmlns="http://www.w3.org/2000/svg">
<circle opacity="0.4" cx="13.7288" cy="14.0962" r="12.047" stroke="currentColor" stroke-width="1.90596"/>
<path d="M14.4336 2.01643C16.0018 2.15362 17.5275 2.59833 18.9237 3.32517C20.32 4.05201 21.5594 5.04674 22.5712 6.25257C23.583 7.45841 24.3474 8.85172 24.8208 10.353C25.2941 11.8542 25.4671 13.434 25.3299 15.0021C25.1927 16.5702 24.748 18.096 24.0212 19.4922C23.2943 20.8884 22.2996 22.1279 21.0938 23.1397C19.8879 24.1515 18.4946 24.9159 16.9934 25.3892C15.4921 25.8626 13.9124 26.0356 12.3442 25.8984C10.7761 25.7612 9.25039 25.3165 7.85415 24.5896C6.4579 23.8628 5.21849 22.8681 4.20668 21.6622C3.19486 20.4564 2.43047 19.0631 1.95712 17.5618C1.48378 16.0606 1.31077 14.4808 1.44796 12.9127C1.58515 11.3446 2.02986 9.81886 2.7567 8.42261C3.48354 7.02637 4.47828 5.78696 5.68411 4.77514C6.88994 3.76333 8.28326 2.99893 9.78451 2.52559C11.2858 2.05225 12.8655 1.87923 14.4336 2.01643L14.4336 2.01643Z" stroke="currentColor" stroke-width="2.5" stroke-linecap="round"/>
<path d="M17.1203 10.673C17.6061 10.673 17.9999 10.2792 17.9999 9.79339C17.9999 9.30762 17.6061 8.91382 17.1203 8.91382C16.6345 8.91382 16.2407 9.30762 16.2407 9.79339C16.2407 10.2792 16.6345 10.673 17.1203 10.673Z" fill="currentColor"/>
<path d="M14.7751 8.91393C15.2609 8.91393 15.6547 8.52013 15.6547 8.03436C15.6547 7.54858 15.2609 7.15479 14.7751 7.15479C14.2893 7.15479 13.8955 7.54858 13.8955 8.03436C13.8955 8.52013 14.2893 8.91393 14.7751 8.91393Z" fill="currentColor"/>
<path d="M12.4294 8.32751C12.9152 8.32751 13.309 7.93371 13.309 7.44793C13.309 6.96216 12.9152 6.56836 12.4294 6.56836C11.9436 6.56836 11.5498 6.96216 11.5498 7.44793C11.5498 7.93371 11.9436 8.32751 12.4294 8.32751Z" fill="currentColor"/>
<path d="M10.0839 9.50036C10.5697 9.50036 10.9635 9.10656 10.9635 8.62078C10.9635 8.13501 10.5697 7.74121 10.0839 7.74121C9.59814 7.74121 9.20435 8.13501 9.20435 8.62078C9.20435 9.10656 9.59814 9.50036 10.0839 9.50036Z" fill="currentColor"/>
<path d="M16.2409 9.79353V13.605C16.2409 13.6828 16.21 13.7573 16.155 13.8123C16.1 13.8673 16.0254 13.8982 15.9477 13.8982C15.8699 13.8982 15.7953 13.8673 15.7403 13.8123C15.6854 13.7573 15.6545 13.6828 15.6545 13.605V8.03438H13.8953V13.0186C13.8953 13.0964 13.8644 13.171 13.8094 13.226C13.7545 13.2809 13.6799 13.3118 13.6021 13.3118C13.5244 13.3118 13.4498 13.2809 13.3948 13.226C13.3398 13.171 13.3089 13.0964 13.3089 13.0186V7.448H11.5498V13.0186C11.5498 13.0964 11.5189 13.171 11.4639 13.226C11.4089 13.2809 11.3344 13.3118 11.2566 13.3118C11.1788 13.3118 11.1043 13.2809 11.0493 13.226C10.9943 13.171 10.9634 13.0964 10.9634 13.0186V8.62076H9.20425V15.9505L8.01683 14.3257C7.665 13.7833 6.97834 13.6015 6.47523 13.9123C5.97387 14.2301 5.84956 14.9232 6.1967 15.4638C6.1967 15.4638 8.11182 18.3623 8.92807 19.6031C9.74431 20.8439 11.0666 21.8144 13.5394 21.8144C17.6335 21.8144 18 18.6526 18 17.7097V9.79353H16.2409Z" fill="currentColor"/>
</svg>
