<svg width="27" height="28" viewBox="0 0 27 28" fill="none" xmlns="http://www.w3.org/2000/svg">
<circle opacity="0.4" cx="13.7288" cy="14.0962" r="12.047" stroke="currentColor" stroke-width="1.90596"/>
<path d="M14.4336 2.01643C16.0018 2.15362 17.5275 2.59833 18.9237 3.32517C20.32 4.05201 21.5594 5.04674 22.5712 6.25257C23.583 7.45841 24.3474 8.85172 24.8208 10.353C25.2941 11.8542 25.4671 13.434 25.3299 15.0021C25.1927 16.5702 24.748 18.096 24.0212 19.4922C23.2943 20.8884 22.2996 22.1279 21.0938 23.1397C19.8879 24.1515 18.4946 24.9159 16.9934 25.3892C15.4921 25.8626 13.9124 26.0356 12.3442 25.8984C10.7761 25.7612 9.25039 25.3165 7.85415 24.5896C6.4579 23.8628 5.21849 22.8681 4.20668 21.6622C3.19486 20.4564 2.43047 19.0631 1.95712 17.5618C1.48378 16.0606 1.31077 14.4808 1.44796 12.9127C1.58515 11.3446 2.02986 9.81886 2.7567 8.42261C3.48354 7.02637 4.47828 5.78696 5.68411 4.77514C6.88994 3.76333 8.28326 2.99893 9.78451 2.52559C11.2858 2.05225 12.8655 1.87923 14.4336 2.01643L14.4336 2.01643Z" stroke="currentColor" stroke-width="2.5" stroke-linecap="round"/>
<path d="M19.025 8.21836H17.4V7.89336C17.4 7.69836 17.27 7.56836 17.075 7.56836H9.925C9.73 7.56836 9.6 7.69836 9.6 7.89336V8.21836H7.975C7.455 8.21836 7 8.67336 7 9.19336V10.5584C7 12.0534 8.17 13.4184 9.99 13.4184C10.445 14.3934 11.225 15.1084 12.2 15.4334V17.3184H10.315C10.185 17.3184 10.055 17.3834 9.99 17.5134L8.95 20.1134C8.885 20.3084 9.015 20.5684 9.275 20.5684H17.725C17.985 20.5684 18.115 20.3084 18.05 20.1134L17.01 17.5134C16.945 17.3834 16.815 17.3184 16.685 17.3184H14.8V15.4334C15.775 15.1084 16.62 14.3284 17.01 13.4184C18.83 13.4184 20 12.0534 20 10.5584V9.19336C20 8.67336 19.545 8.21836 19.025 8.21836ZM8.3 10.5584V9.51836H9.6V12.1184C8.885 11.9884 8.3 11.3384 8.3 10.5584ZM18.7 10.5584C18.7 11.3384 18.115 11.9884 17.4 12.1184V9.51836H18.7V10.5584Z" fill="currentColor"/>
</svg>
