<svg width="26" height="26" viewBox="0 0 26 26" fill="none" xmlns="http://www.w3.org/2000/svg">
<path d="M18.525 7.15H16.9V6.825C16.9 6.63 16.77 6.5 16.575 6.5H9.425C9.23 6.5 9.1 6.63 9.1 6.825V7.15H7.475C6.955 7.15 6.5 7.605 6.5 8.125V9.49C6.5 10.985 7.67 12.35 9.49 12.35C9.945 13.325 10.725 14.04 11.7 14.365V16.25H9.815C9.685 16.25 9.555 16.315 9.49 16.445L8.45 19.045C8.385 19.24 8.515 19.5 8.775 19.5H17.225C17.485 19.5 17.615 19.24 17.55 19.045L16.51 16.445C16.445 16.315 16.315 16.25 16.185 16.25H14.3V14.365C15.275 14.04 16.12 13.26 16.51 12.35C18.33 12.35 19.5 10.985 19.5 9.49V8.125C19.5 7.605 19.045 7.15 18.525 7.15ZM7.8 9.49V8.45H9.1V11.05C8.385 10.92 7.8 10.27 7.8 9.49ZM18.2 9.49C18.2 10.27 17.615 10.92 16.9 11.05V8.45H18.2V9.49Z" fill="currentColor"/>
<circle cx="13" cy="13" r="12" stroke="currentColor" stroke-width="2"/>
</svg>
