<svg width="26" height="26" viewBox="0 0 26 26" fill="none" xmlns="http://www.w3.org/2000/svg">
  <path d="M13.1068 19.9999C11.9246 20.002 10.7703 19.6459 9.80126 18.9799C9.69333 18.9059 9.61971 18.7928 9.59659 18.6655C9.57347 18.5382 9.60274 18.407 9.67796 18.3009C9.75318 18.1948 9.86819 18.1224 9.99769 18.0996C10.1272 18.0769 10.2606 18.1057 10.3685 18.1796C11.0872 18.6717 11.9293 18.9607 12.8033 19.0153C13.6773 19.0699 14.5498 18.8879 15.3261 18.4893C16.1023 18.0906 16.7527 17.4905 17.2065 16.754C17.6603 16.0175 17.9002 15.1728 17.9002 14.3116C17.9002 13.4505 17.6603 12.6058 17.2065 11.8693C16.7527 11.1328 16.1023 10.5327 15.3261 10.134C14.5498 9.73534 13.6773 9.55343 12.8033 9.60802C11.9293 9.66261 11.0872 9.95161 10.3685 10.4436C10.2606 10.5176 10.1272 10.5464 9.99769 10.5237C9.86819 10.5009 9.75318 10.4285 9.67796 10.3224C9.60274 10.2163 9.57347 10.0851 9.59659 9.95779C9.61971 9.83045 9.69333 9.71736 9.80126 9.64339C10.5464 9.13326 11.4032 8.80276 12.3024 8.67865C13.2015 8.55453 14.1177 8.64028 14.9769 8.92895C15.8361 9.21762 16.6142 9.70111 17.2481 10.3403C17.882 10.9795 18.354 11.7565 18.6259 12.6083C18.8978 13.4601 18.9619 14.363 18.8131 15.2437C18.6644 16.1244 18.3068 16.9584 17.7695 17.678C17.2321 18.3977 16.53 18.9829 15.72 19.3863C14.91 19.7896 14.0148 19.9998 13.1068 19.9999Z" fill="currentColor"/>
  <path d="M9.80142 15.1244H7.15695C7.02545 15.1244 6.89933 15.073 6.80634 14.9815C6.71336 14.8901 6.66112 14.7661 6.66112 14.6368C6.66112 14.5075 6.71336 14.3835 6.80634 14.292C6.89933 14.2006 7.02545 14.1492 7.15695 14.1492H9.80142C9.93292 14.1492 10.059 14.2006 10.152 14.292C10.245 14.3835 10.2973 14.5075 10.2973 14.6368C10.2973 14.7661 10.245 14.8901 10.152 14.9815C10.059 15.073 9.93292 15.1244 9.80142 15.1244ZM10.251 13.1741H6.49584C6.36433 13.1741 6.23821 13.1227 6.14523 13.0313C6.05224 12.9399 6 12.8158 6 12.6865C6 12.5572 6.05224 12.4332 6.14523 12.3418C6.23821 12.2503 6.36433 12.199 6.49584 12.199H10.251C10.3825 12.199 10.5086 12.2503 10.6016 12.3418C10.6946 12.4332 10.7468 12.5572 10.7468 12.6865C10.7468 12.8158 10.6946 12.9399 10.6016 13.0313C10.5086 13.1227 10.3825 13.1741 10.251 13.1741ZM10.4625 17.0746H6.49584C6.36433 17.0746 6.23821 17.0232 6.14523 16.9318C6.05224 16.8404 6 16.7163 6 16.587C6 16.4577 6.05224 16.3337 6.14523 16.2423C6.23821 16.1508 6.36433 16.0995 6.49584 16.0995H10.4625C10.594 16.0995 10.7202 16.1508 10.8131 16.2423C10.9061 16.3337 10.9584 16.4577 10.9584 16.587C10.9584 16.7163 10.9061 16.8404 10.8131 16.9318C10.7202 17.0232 10.594 17.0746 10.4625 17.0746ZM19.4663 7.57754L17.237 6.17791C16.9781 6.01611 16.6645 5.96186 16.3649 6.02706C16.0654 6.09225 15.8044 6.27157 15.6391 6.5257L15.2834 7.07372C15.1186 7.3281 15.0633 7.63636 15.1295 7.93084C15.1957 8.22531 15.378 8.48192 15.6364 8.64432L17.867 10.0433C18.1258 10.2046 18.439 10.2586 18.7381 10.1935C19.0373 10.1285 19.2981 9.94968 19.4636 9.69616L19.8193 9.14814C19.9837 8.89367 20.0389 8.58551 19.9727 8.29114C19.9065 7.99677 19.7244 7.74017 19.4663 7.57754Z" fill="currentColor"/>
  <path d="M16.306 10.5164C16.2172 10.5163 16.1301 10.4926 16.0537 10.448C15.9774 10.4035 15.9147 10.3395 15.872 10.2629C15.8294 10.1864 15.8085 10.0999 15.8114 10.0127C15.8144 9.9254 15.8411 9.84052 15.8888 9.76689L16.5995 8.67085C16.6345 8.61685 16.68 8.57017 16.7334 8.53346C16.7868 8.49676 16.847 8.47075 16.9106 8.45693C16.9742 8.44311 17.04 8.44174 17.1041 8.4529C17.1682 8.46406 17.2295 8.48753 17.2844 8.52198C17.3393 8.55643 17.3868 8.60117 17.4241 8.65366C17.4615 8.70615 17.4879 8.76535 17.502 8.82789C17.516 8.89043 17.5174 8.95508 17.5061 9.01815C17.4947 9.08122 17.4709 9.14147 17.4358 9.19547L16.7245 10.2909C16.6798 10.3602 16.618 10.4172 16.5448 10.4567C16.4716 10.4961 16.3894 10.5167 16.306 10.5164ZM13.1068 10.5736C12.355 10.5736 11.62 10.7929 10.9949 11.2036C10.3697 11.6143 9.88251 12.1981 9.59479 12.8812C9.30707 13.5642 9.23179 14.3158 9.37846 15.0409C9.52514 15.766 9.88719 16.432 10.4188 16.9548C10.9505 17.4775 11.6278 17.8335 12.3652 17.9778C13.1026 18.122 13.867 18.048 14.5616 17.7651C15.2562 17.4821 15.8499 17.003 16.2676 16.3883C16.6853 15.7736 16.9083 15.0509 16.9083 14.3116C16.9116 13.8198 16.8155 13.3323 16.6257 12.8773C16.4358 12.4223 16.1559 12.0089 15.8023 11.6612C15.4486 11.3134 15.0282 11.0382 14.5655 10.8515C14.1028 10.6648 13.607 10.5704 13.1068 10.5736ZM14.7543 13.551L14.0793 14.127C14.0918 14.1878 14.0982 14.2496 14.0985 14.3116C14.1019 14.5226 14.0367 14.729 13.9124 14.901C13.7881 15.073 13.6113 15.2015 13.4076 15.2677C13.2039 15.334 12.984 15.3346 12.78 15.2695C12.5759 15.2043 12.3983 15.0768 12.2731 14.9055C12.1478 14.7343 12.0814 14.5281 12.0836 14.3172C12.0858 14.1062 12.1564 13.9014 12.2851 13.7327C12.4138 13.5639 12.594 13.44 12.7994 13.3789C13.0047 13.3178 13.2245 13.3228 13.4268 13.3931L14.1038 12.8145C14.2031 12.7297 14.3327 12.6871 14.4639 12.6962C14.5951 12.7053 14.7173 12.7652 14.8036 12.8629C14.8899 12.9606 14.9331 13.0879 14.9239 13.217C14.9147 13.346 14.8537 13.4662 14.7543 13.551Z" fill="currentColor"/>
  <circle cx="13" cy="13" r="12" stroke="currentColor" stroke-width="2"/>
</svg>