<svg width="16" height="18" viewBox="0 0 16 18" fill="none" xmlns="http://www.w3.org/2000/svg">
<path d="M4.89648 17.8256C5.5201 17.8256 5.69635 17.5815 5.69635 17.2697C5.69635 16.9579 5.69635 16.2801 5.68279 15.3175C2.44266 16.0089 1.75125 13.772 1.75125 13.772C1.22253 12.457 0.449777 12.0909 0.449777 12.0909C-0.607671 11.386 0.531119 11.3995 0.531119 11.3995C1.69702 11.4809 2.32065 12.579 2.32065 12.579C3.36454 14.3414 5.04561 13.8262 5.7099 13.528C5.76413 12.945 6.02171 12.3892 6.45554 11.9825C3.86615 11.6978 1.14119 10.7081 1.14119 6.31565C1.12763 5.17686 1.56145 4.06518 2.34776 3.2382C2.21219 2.9535 1.81904 1.7876 2.44266 0.201428C2.44266 0.201428 3.41877 -0.110383 5.65567 1.38089C7.56721 0.865722 9.57365 0.865722 11.4852 1.38089C13.695 -0.0968261 14.6847 0.201428 14.6847 0.201428C15.3083 1.77404 14.9151 2.93995 14.8067 3.2382C15.593 4.06518 16.0132 5.17686 15.9997 6.31565C15.9997 10.7217 13.2747 11.6842 10.6718 11.9689C11.0785 12.3078 11.4581 13.0128 11.4581 14.0838C11.4581 15.6293 11.4445 16.8495 11.4445 17.2155C11.4445 17.5137 11.5801 17.7578 12.2444 17.7578L4.89648 17.8256Z" fill="black"/>
</svg>
